Simulation
nRows=24
nColumns=15
endheader
time  TH_x TH_y TH_z SC_y  SC_z  SC_x  AC_y  AC_z  AC_x  GH_y  GH_z  GH_yy  EL_x  PS_y
0.75  0.000000  0.000000  0.000000  -33.3022326210544  0.3940498272462748  19.78282968432805  57.718201101833316  2.0702015039851696  -10.950553356329248  21.550461955237836  44.62504823257246  -17.69186792616597  19.92454815910538  0.000000
0.765  0.000000  0.000000  0.000000  -33.35649371258368  0.4754586067362434  19.97608379169614  57.83786767339245  2.514466304220514  -10.872839103174249  21.62937275730397  45.12741981049743  -18.033113530960758  19.72607381926803  0.000000
0.78  0.000000  0.000000  0.000000  -33.40190557295043  0.5558253042172507  20.174116410002547  57.953173181248  2.9586834120020455  -10.79438854363429  21.714868701716508  45.61598722118456  -18.3715466745312  19.526838974762434  0.000000
0.7949999999999999  0.000000  0.000000  0.000000  -33.43929778990733  0.6347114540823092  20.376662124382573  58.063845446850294  3.400938423498627  -10.715166045169342  21.806553803156774  46.0907963416532  -18.706983738718204  19.32730586359028  0.000000
0.8099999999999999  0.000000  0.000000  0.000000  -33.46941569167258  0.7117383448063646  20.583285157342605  58.16985363399798  3.8393890766721173  -10.635287437638095  21.903926623601095  46.551796476169244  -19.03919462111357  19.127989964365902  0.000000
0.825  0.000000  0.000000  0.000000  -33.493049282118676  0.7865514821021339  20.793533282272055  58.27085153174551  4.2721095148303805  -10.554864735386232  22.006299536779068  46.99895831831026  -19.36778050987614  18.929386123632113  0.000000
0.84  0.000000  0.000000  0.000000  -33.51097880851086  0.8588019061801065  21.00680156295874  58.36660847517849  4.6972409379864875  -10.474290804466872  22.112685055160753  47.43210300735951  -19.69219222718018  18.731937194706877  0.000000
0.855  0.000000  0.000000  0.000000  -33.524304348592665  0.9282002418486311  21.222432161518615  58.456487417905805  5.1127675687544  -10.394140728804048  22.22174383537275  47.85102015859407  -20.01162768803547  18.536003642137413  0.000000
0.87  0.000000  0.000000  0.000000  -33.53395709679003  0.9942185473161805  21.439675029371962  58.53965401476259  5.5168627892372495  -10.315384360596818  22.33137932384708  48.255178420977195  -20.32486767877498  18.3417118256111  0.000000
0.885  0.000000  0.000000  0.000000  -33.54043373062488  1.0563471062440153  21.65780256992867  58.61511600925942  5.907928297344761  -10.238665910446437  22.43936561593206  48.64402760024008  -20.630477025614475  18.14936105647003  0.000000
0.8999999999999999  0.000000  0.000000  0.000000  -33.54447264311673  1.114817902757999  21.87579150176637  58.68360421410221  6.284370409998666  -10.16359875442973  22.54516122693681  49.017637036616534  -20.928305709875197  17.959353454307895  0.000000
0.9149999999999999  0.000000  0.000000  0.000000  -33.54636321616068  1.170170016151461  22.092765218630515  58.746016753076304  6.644653638876027  -10.08940385814252  22.648770886286613  49.376399763560826  -21.2183642208407  17.772432030959887  0.000000
0.9299999999999999  0.000000  0.000000  0.000000  -33.5457389753264  1.2227435785515308  22.307816920733078  58.80323159021182  6.987749306877914  -10.01529186125745  22.749974296924762  49.72059805331733  -21.50045126735281  17.589431287098776  0.000000
0.945  0.000000  0.000000  0.000000  -33.54237617753534  1.2730241832675748  22.520125580429873  58.856325324006214  7.312624544641556  -9.940113304686232  22.84903298988097  50.0508919653627  -21.774632011146576  17.411225033000846  0.000000
0.96  0.000000  0.000000  0.000000  -33.53595065631172  1.321567555363957  22.72881801607022  58.90671415658485  7.618537670747695  -9.862878027677105  22.94628921783353  50.36794553495788  -22.041016424657403  17.238805358083656  0.000000
0.975  0.000000  0.000000  0.000000  -33.52623093262213  1.3688265939369308  22.93319928792215  58.955269196142325  7.904713657684329  -9.782785459436258  23.041734802511737  50.67237389766416  -22.299409433318697  17.07298238348109  0.000000
0.99  0.000000  0.000000  0.000000  -33.51286651275009  1.4153592012128045  23.132455814780766  59.002797568652966  8.170662553831583  -9.699594793710432  23.13487066449672  50.964407845543896  -22.549409749702008  16.91430013100669  0.000000
1.005  0.000000  0.000000  0.000000  -33.4959047037717  1.4615668889614093  23.325933132992137  59.0496674566615  8.41588826981876  -9.613168203087067  23.225041548437773  51.244260800090395  -22.790428088561153  16.76331923026087  0.000000
1.02  0.000000  0.000000  0.000000  -33.47562755532182  1.5077374050402097  23.51290446325695  59.096459139496055  8.64022585047418  -9.52350804147064  23.31167608521839  51.51209449694817  -23.022039303457372  16.620571368844807  0.000000
1.035  0.000000  0.000000  0.000000  -33.45237608423432  1.5541768249946417  23.692853299743323  59.143347656804885  8.843612393872206  -9.430675756301982  23.39423018108328  51.76809465807148  -23.24374079686842  16.48661473840019  0.000000
1.05  0.000000  0.000000  0.000000  -33.42647307561932  1.6011523366939664  23.865211776183834  59.19063680543531  9.026430087048512  -9.334902183721452  23.472242300376738  52.012324833621314  -23.45517257304406  16.36191207170033  0.000000
1.065  0.000000  0.000000  0.000000  -33.398317913483105  1.6488786772402897  24.029655655723456  59.238198440417044  9.1891806770395  -9.236460044820237  23.5453351219957  52.24486835786371  -23.655946933828123  16.24696136519138  0.000000
1.08  0.000000  0.000000  0.000000  -33.36828480264141  1.697530880224333  24.185815482109234  59.28604130071777  9.332823352809225  -9.135804925503647  23.61324888354928  52.46566742557329  -23.845844724143713  16.14213790359746  0.000000
1.095  0.000000  0.000000  0.000000  -33.33682735519592  1.7471973702936632  24.33357780959238  59.33373114841834  9.458398486778584  -9.03340563647489  23.675812616586555  52.674687588093825  -24.024632121515292  16.04785703439286  0.000000
